<?xml version="1.0" encoding="UTF-8"?>
<!DOCTYPE svg PUBLIC "-//W3C//DTD SVG 1.1//EN" "http://www.w3.org/Graphics/SVG/1.1/DTD/svg11.dtd">
<svg version="1.1" xmlns="http://www.w3.org/2000/svg" xmlns:xlink="http://www.w3.org/1999/xlink" x="0" y="0" width="578.106" height="578.106" viewBox="0, 0, 578.106, 578.106">
  <g id="Layer_1">
    <path d="M22.078,384.35 C15.861,379.568 12.755,373.111 12.754,364.985 L13.114,269.959 C12.875,265.417 13.65,260.574 15.445,255.436 C17.237,250.296 19.567,245.814 22.436,241.991 C22.675,241.752 23.332,240.971 24.408,239.656 C25.483,238.343 26.976,236.728 28.889,234.816 C33.432,230.272 41.561,223.697 53.276,215.092 C64.99,206.486 81.247,197.881 102.043,189.275 C122.844,180.666 148.663,173.137 179.501,166.682 C210.338,160.226 246.917,157.119 289.232,157.358 C322.462,157.119 352.106,159.032 378.163,163.095 C404.222,167.16 426.993,172.24 446.477,178.336 C465.961,184.432 482.576,191.006 496.322,198.058 C510.068,205.111 521.304,211.805 530.03,218.14 C538.756,224.475 545.151,229.914 549.215,234.456 C553.279,238.998 555.55,241.508 556.028,241.987 C558.897,245.812 561.228,250.294 563.021,255.434 C564.814,260.574 565.591,265.415 565.352,269.957 L565.352,365.344 C565.352,372.038 563.2,377.536 558.897,381.839 C555.789,384.947 552.144,386.8 547.96,387.398 C543.776,387.995 539.533,387.816 535.23,386.86 L424.065,352.434 C418.088,350.761 413.307,347.175 409.721,341.676 C406.135,336.178 404.342,330.321 404.342,324.105 L404.342,288.963 C404.342,288.006 403.983,286.811 403.266,285.377 C402.549,283.942 401.832,282.867 401.115,282.149 C395.138,278.085 387.249,274.499 377.447,271.391 C368.841,268.523 357.426,265.953 343.201,263.682 C328.977,261.411 310.988,260.395 289.233,260.634 C267.477,260.394 249.369,261.411 234.904,263.681 C220.445,265.953 208.966,268.464 200.479,271.213 C191.992,273.962 185.956,276.532 182.372,278.924 L176.994,282.508 C176.516,282.986 175.917,283.945 175.2,285.377 C174.484,286.812 174.124,288.007 174.124,288.964 L174.484,330.203 C174.003,338.332 170.897,345.263 165.159,351.001 C161.094,355.066 157.151,357.575 153.326,358.531 L152.968,358.889 L42.879,387.218 C34.747,389.13 27.816,388.174 22.078,384.35 z" fill="#FFFFFF"/>
  </g>
</svg>
