<?xml version="1.0" encoding="utf-8"?>
<!-- Generator: Adobe Illustrator 19.2.0, SVG Export Plug-In . SVG Version: 6.00 Build 0)  -->
<svg version="1.1" id="Layer_1" xmlns:sketch="http://www.bohemiancoding.com/sketch/ns"
	 xmlns="http://www.w3.org/2000/svg" xmlns:xlink="http://www.w3.org/1999/xlink" x="0px" y="0px" viewBox="0 0 28.3 28.3"
	 style="enable-background:new 0 0 28.3 28.3;" xml:space="preserve">
<style type="text/css">
	.st0{fill:#009E9F;}
</style>
<title>contacta</title>
<desc>Created with Sketch.</desc>
<g id="Page-1" sketch:type="MSPage">
	<g id="Desktop-HD-Copy" transform="translate(-290.000000, -747.000000)" sketch:type="MSArtboardGroup">
		<g id="UITabBar" transform="translate(0.000000, 727.000000)" sketch:type="MSLayerGroup">
			<path id="contacta" sketch:type="MSShapeGroup" class="st0" d="M313.4,38.1h-1.2c-0.2-0.8-0.6-1.4-1.2-2c0.7,0,1.4-0.1,2.2-0.5
				c0.6-0.3,1.2-0.7,1.6-1.2c0.6,0.4,1,0.9,1,1.6C315.8,37.3,314.8,38.1,313.4,38.1 M307.2,42.3h-5.8c-1.8,0-3.3-1.3-3.3-3
				c0-1,0.5-1.9,1.4-2.5c0.1,0,0.1-0.1,0.1-0.1c1.3,1.4,3,2.4,4.7,2.4c1.7,0,3.4-1,4.7-2.4c0,0.1,0.1,0.1,0.2,0.1
				c0.9,0.6,1.4,1.4,1.4,2.4C310.5,41,309,42.3,307.2,42.3 M292.5,36.1c0-0.7,0.4-1.3,1-1.7c0.5,0.5,1.1,1,1.6,1.3
				c0.8,0.4,1.6,0.4,2.3,0.4c-0.6,0.6-1,1.2-1.2,2.1h-1.4C293.6,38.1,292.5,37.3,292.5,36.1 M293.9,28.6c0.2-0.5,0.5-1,0.8-1.4
				c0.3-0.4,0.7-0.7,1.2-0.9c0.9-0.4,1.8-0.4,2.7,0c0.3,0.1,0.5,0.3,0.8,0.5c-1.1,1.3-1.7,3-1.7,4.9c0,0.9,0.2,1.8,0.5,2.6
				c-0.7,0.3-1.3,0.3-2-0.1c-0.4-0.2-0.8-0.6-1.2-1c-0.4-0.4-0.7-0.9-0.9-1.4c-0.2-0.5-0.4-1.1-0.4-1.6
				C293.5,29.7,293.6,29.2,293.9,28.6 M309.2,31.8c0,2.9-2.8,5.7-4.9,5.7c-2.1,0-4.9-2.8-4.9-5.7c0-3.1,2.2-5.7,4.9-5.7
				C307,26.1,309.2,28.6,309.2,31.8 M309.8,26.4c0.9-0.4,1.8-0.4,2.7,0c0.4,0.2,0.8,0.5,1.2,0.9c0.3,0.4,0.6,0.9,0.8,1.4
				c0.2,0.5,0.3,1.1,0.3,1.7c0,0.5-0.1,1-0.4,1.6c-0.2,0.5-0.5,1-0.9,1.4c-0.4,0.4-0.8,0.7-1.2,1c-0.7,0.4-1.3,0.4-1.9,0.1
				c0.4-0.9,0.6-1.8,0.6-2.6c0-1.9-0.7-3.7-1.8-5C309.4,26.6,309.6,26.5,309.8,26.4 M315.9,33.1C315.9,33.1,315.9,33.1,315.9,33.1
				c0.1-0.2,0.2-0.4,0.2-0.5c0.3-0.7,0.5-1.5,0.5-2.2c0-0.8-0.1-1.5-0.4-2.3c-0.3-0.7-0.6-1.3-1.1-1.9c-0.5-0.6-1.1-1-1.7-1.3
				c-1.4-0.7-3-0.7-4.4,0c-0.4,0.2-0.8,0.4-1.1,0.7c-1.1-0.8-2.3-1.2-3.7-1.2c-1.4,0-2.7,0.5-3.8,1.3c-0.4-0.3-0.7-0.6-1.2-0.8
				c-1.4-0.7-3-0.7-4.4,0c-0.6,0.3-1.2,0.7-1.7,1.3c-0.5,0.5-0.9,1.2-1.1,1.9c-0.3,0.7-0.4,1.5-0.4,2.3c0,0.7,0.2,1.5,0.5,2.2
				c0.1,0.2,0.2,0.4,0.3,0.5c0,0,0,0,0,0c-1.1,0.7-1.8,1.7-1.8,3c0,2.1,1.9,3.7,4.2,3.7h1.4c0.4,2.5,2.5,4.1,5.1,4.1h5.8
				c2.6,0,4.7-1.7,5.1-4.1h1.2c2.3,0,4.2-1.6,4.2-3.7C317.7,34.8,317,33.8,315.9,33.1"/>
		</g>
	</g>
</g>
</svg>
