<?xml version="1.0" encoding="utf-8"?>
<!-- Generator: Adobe Illustrator 19.2.0, SVG Export Plug-In . SVG Version: 6.00 Build 0)  -->
<svg version="1.1" id="Layer_1" xmlns:sketch="http://www.bohemiancoding.com/sketch/ns"
	 xmlns="http://www.w3.org/2000/svg" xmlns:xlink="http://www.w3.org/1999/xlink" x="0px" y="0px" viewBox="0 0 28.3 28.3"
	 style="enable-background:new 0 0 28.3 28.3;" xml:space="preserve">
<style type="text/css">
	.st0{fill:#009E9F;}
</style>
<title>menu</title>
<desc>Created with Sketch.</desc>
<g id="Page-1" sketch:type="MSPage">
	<g id="Desktop-HD-Copy" transform="translate(-15.000000, -25.000000)" sketch:type="MSArtboardGroup">
		<path id="menu" sketch:type="MSShapeGroup" class="st0" d="M17.2,33.2c0-0.6,0.4-1,1-1h22c0.6,0,1,0.4,1,1c0,0.6-0.4,1-1,1h-22
			C17.6,34.2,17.2,33.7,17.2,33.2z M17.2,39.2c0-0.6,0.4-1,1-1h22c0.6,0,1,0.4,1,1c0,0.6-0.4,1-1,1h-22
			C17.6,40.2,17.2,39.7,17.2,39.2z M17.2,45.2c0-0.6,0.4-1,1-1h22c0.6,0,1,0.4,1,1c0,0.6-0.4,1-1,1h-22
			C17.6,46.2,17.2,45.7,17.2,45.2z"/>
	</g>
</g>
</svg>
