<?xml version="1.0" encoding="UTF-8" standalone="no"?>
<svg width="150px" height="150px" viewBox="0 0 150 150" version="1.1" xmlns="http://www.w3.org/2000/svg" xmlns:xlink="http://www.w3.org/1999/xlink" xmlns:sketch="http://www.bohemiancoding.com/sketch/ns">
    <!-- Generator: Sketch 3.5.1 (25234) - http://www.bohemiancoding.com/sketch -->
    <title>avatar</title>
    <desc>Created with Sketch.</desc>
    <defs></defs>
    <g id="Page-1" stroke="none" stroke-width="1" fill="none" fill-rule="evenodd" sketch:type="MSPage">
        <g id="avatar" sketch:type="MSLayerGroup">
            <rect id="Rectangle-1" fill="#F1F1F1" sketch:type="MSShapeGroup" x="0" y="0" width="150" height="150" rx="100"></rect>
            <g id="Group" transform="translate(41.000000, 34.000000)" sketch:type="MSShapeGroup">
                <path d="M20.265,83.6721153 C26.0992857,83.6721153 31.3178571,81.1635051 34.9964286,77.2126576 C38.6735714,81.1635051 43.8878571,83.6721153 49.7164286,83.6721153 C55.0464286,83.6721153 59.8478571,81.5749627 63.4492857,78.213539 L35.0378571,49.9026915 C35.0278571,49.9212 35.0064286,49.9454034 34.9964286,49.9610644 C34.975,49.9454034 34.9635714,49.9212 34.9435714,49.9026915 L6.54071429,78.213539 C10.1392857,81.5749627 14.945,83.6721153 20.265,83.6721153" id="Fill-9" fill="#343433"></path>
                <path d="M6.54085714,63.5175254 L34.9422857,35.206678 C34.9322857,35.1895932 34.9222857,35.1739322 34.9008571,35.1582712 C34.9322857,35.1241017 34.9637143,35.0870847 34.9951429,35.0529153 C35.028,35.0870847 35.0494286,35.1241017 35.0808571,35.1582712 C35.0694286,35.1739322 35.0594286,35.1895932 35.038,35.206678 L63.4494286,63.5175254 C67.3822857,59.8556949 69.8722857,54.6790169 69.8722857,48.8915593 C69.8722857,43.5625424 67.748,38.7517627 64.3508571,35.1582712 C67.748,31.5647797 69.8722857,26.754 69.8722857,21.4249831 C69.8722857,10.3355593 60.8437143,1.34186441 49.7165714,1.34186441 C43.888,1.34186441 38.6737143,3.85047458 34.9951429,7.80132203 C31.318,3.85047458 26.0994286,1.34186441 20.2651429,1.34186441 C9.13657143,1.34186441 0.118,10.3355593 0.118,21.4249831 C0.118,26.754 2.238,31.5647797 5.63514286,35.1582712 C2.238,38.7517627 0.118,43.5625424 0.118,48.8915593 C0.118,54.6761695 2.60942857,59.8556949 6.54085714,63.5175254" id="Fill-11" fill="#8AEC50"></path>
            </g>
        </g>
    </g>
</svg>