<?xml version="1.0" encoding="utf-8"?>
<!-- Generator: Adobe Illustrator 19.2.0, SVG Export Plug-In . SVG Version: 6.00 Build 0)  -->
<svg version="1.1" id="Layer_1" xmlns:sketch="http://www.bohemiancoding.com/sketch/ns"
	 xmlns="http://www.w3.org/2000/svg" xmlns:xlink="http://www.w3.org/1999/xlink" x="0px" y="0px" viewBox="0 0 28.3 28.3"
	 style="enable-background:new 0 0 28.3 28.3;" xml:space="preserve">
<style type="text/css">
	.st0{fill:#009E9F;}
</style>
<title>chat</title>
<desc>Created with Sketch.</desc>
<g id="Page-1" sketch:type="MSPage">
	<g id="Desktop-HD-Copy" transform="translate(-40.000000, -747.000000)" sketch:type="MSArtboardGroup">
		<g id="UITabBar" transform="translate(0.000000, 727.000000)" sketch:type="MSLayerGroup">
			<path id="chat" sketch:type="MSShapeGroup" class="st0" d="M54.3,25.4c-6,0-10.9,3.6-10.9,8c0,1.8,0.8,3.6,2.4,5
				c0.2,0.2,0.3,0.5,0.3,0.7c0,0.8-0.2,2.1-0.7,3.3c1.7-0.5,3.1-1.1,3.9-1.6c0.3-0.2,0.6-0.2,0.9-0.1c1.3,0.4,2.7,0.6,4.1,0.6
				c6,0,10.9-3.6,10.9-8S60.3,25.4,54.3,25.4 M43.3,44.9c-0.4,0-0.8-0.2-1-0.5c-0.2-0.4-0.2-0.8,0.1-1.1c1-1.2,1.3-2.8,1.4-3.8
				c-1.8-1.7-2.7-3.9-2.7-6.1c0-5.5,5.9-10,13.1-10s13.1,4.5,13.1,10s-5.9,10-13.1,10c-1.5,0-2.9-0.2-4.3-0.5
				c-1.3,0.7-3.7,1.7-6.6,2C43.4,44.9,43.4,44.9,43.3,44.9"/>
		</g>
	</g>
</g>
</svg>
