<?xml version="1.0" encoding="utf-8"?>
<!-- Generator: Adobe Illustrator 19.2.0, SVG Export Plug-In . SVG Version: 6.00 Build 0)  -->
<svg version="1.1" id="Layer_1" xmlns:sketch="http://www.bohemiancoding.com/sketch/ns"
	 xmlns="http://www.w3.org/2000/svg" xmlns:xlink="http://www.w3.org/1999/xlink" x="0px" y="0px" viewBox="0 0 28.3 28.3"
	 style="enable-background:new 0 0 28.3 28.3;" xml:space="preserve">
<style type="text/css">
	.st0{fill:#009E9F;}
</style>
<title>Fill 1</title>
<desc>Created with Sketch.</desc>
<g id="Page-1" sketch:type="MSPage">
	<g id="Desktop-HD-Copy" transform="translate(-206.000000, -744.000000)" sketch:type="MSArtboardGroup">
		<g id="UITabBar" transform="translate(0.000000, 727.000000)" sketch:type="MSLayerGroup">
			<path id="Fill-1" sketch:type="MSShapeGroup" class="st0" d="M210.4,38.3v1.2c0,1.2,1.5,2.5,2.8,2.5h14.1c1.3,0,2.7-1.3,2.7-2.5
				V22.8c0-1.2-1.4-2.5-2.7-2.5h-14.1c-1.3,0-2.8,1.3-2.8,2.5v1.2h0.4c1.3,0,2.3,0.9,2.3,2.1s-1,2.1-2.3,2.1h-0.4v1h0.4
				c1.3,0,2.3,1,2.3,2.2s-1,2.2-2.3,2.2h-0.4v0.6h0.4c1.3,0,2.3,0.9,2.3,2.1s-1,2.1-2.3,2.1H210.4z M227.3,44h-14.1
				c-2.5,0-5-2.2-5-4.5v-1.9c0-0.7,0.7-1.4,1.5-1.4h1c0,0,0.1,0,0.1-0.1s-0.1-0.1-0.1-0.1h-1c-0.8,0-1.5-0.7-1.5-1.4v-1.9
				c0-0.8,0.8-1.3,1.5-1.3h1c0.1,0,0.1-0.1,0.1-0.2c0-0.1-0.1-0.2-0.1-0.2h-1c-0.8,0-1.5-0.6-1.5-1.3v-2.3c0-0.7,0.7-1.4,1.5-1.4h1
				c0,0,0.1,0,0.1-0.1s-0.1-0.1-0.1-0.1h-1c-0.8,0-1.5-0.6-1.5-1.4v-1.9c0-2.3,2.5-4.5,5-4.5h14.1c2.5,0,4.9,2.2,4.9,4.5v16.7
				C232.2,41.8,229.8,44,227.3,44z M216.7,33.7c0,0.9,0.8,1.7,1.9,1.7h3.2c1,0,1.9-0.7,1.9-1.7c0-0.5-0.3-1-0.8-1.3
				c0,0-0.1-0.1-0.1-0.1c-0.7,0.8-1.7,1.4-2.6,1.4c-0.9,0-1.9-0.5-2.6-1.3c0,0-0.1,0-0.1,0.1C217,32.6,216.7,33.1,216.7,33.7z
				 M220.2,32.7c1.2,0,2.7-1.6,2.7-3.2c0-1.7-1.2-3.2-2.7-3.2c-1.5,0-2.7,1.4-2.7,3.2C217.4,31.1,219,32.7,220.2,32.7z M226.2,37.3
				h-12v-1h12V37.3z M225.4,38.8H215v-1h10.4V38.8z"/>
		</g>
	</g>
</g>
</svg>
