<?xml version="1.0" encoding="UTF-8"?>
<!DOCTYPE svg PUBLIC "-//W3C//DTD SVG 1.1//EN" "http://www.w3.org/Graphics/SVG/1.1/DTD/svg11.dtd">
<svg version="1.1" xmlns="http://www.w3.org/2000/svg" xmlns:xlink="http://www.w3.org/1999/xlink" x="0" y="0" width="3000" height="500" viewBox="0, 0, 3000, 500">
  <g id="Page-1">
    <path d="M83.215,300.996 C81.446,339.352 73.49,390.92 45.358,417.508 C99.089,417.508 154.107,382.165 186.739,356.702" fill="#009E9F" id="Shape"/>
    <path d="M227.022,35.775 L43.212,128.911 C17.5,413.906 229.411,462.185 229.411,462.185 C229.411,462.185 440.769,411.538 411.863,126.848 L227.022,35.775 z" fill="#009E9F" id="Shape"/>
    <path d="M227.022,35.775 L229.411,462.185 C229.411,462.185 440.769,411.538 411.863,126.848 L227.022,35.775 z" fill="#007D7E" id="Shape"/>
    <path d="M380.929,150.838 L228.032,75.504 L75.987,152.544 C54.719,388.288 230.008,428.224 230.008,428.224 C230.008,428.224 404.84,386.329 380.929,150.838" fill="#ECF0FF" id="Shape"/>
    <path d="M228.032,75.504 L75.987,152.544 C54.72,388.288 230.009,428.224 230.009,428.224" fill="#FFFFFF" id="Shape"/>
    <path d="M100.22,279.548 C106.314,311.209 109.953,354.871 92.212,382.1 C136.079,371.553 174.048,331.899 195.685,304.706" fill="#FFFFFF" id="Shape"/>
    <path d="M203.246,275.596 C204.37,284.026 206.66,290.449 210.115,294.865 C215.739,302.011 223.773,305.584 234.217,305.584 C242.01,305.584 248.015,303.757 252.233,300.104 C256.451,296.451 258.56,292.216 258.56,287.399 C258.56,282.822 256.551,278.727 252.535,275.114 C248.517,271.501 239.198,268.089 224.576,264.877 C200.635,259.498 183.562,252.352 173.36,243.44 C163.076,234.528 157.934,223.167 157.934,209.358 C157.934,200.285 160.565,191.714 165.828,183.645 C171.09,175.576 179.003,169.233 189.568,164.617 C200.133,160 214.614,157.691 233.012,157.691 C255.587,157.691 272.8,161.887 284.65,170.277 C296.5,178.667 303.55,192.015 305.8,210.321 L254.342,213.332 C252.976,205.383 250.104,199.602 245.726,195.989 C241.347,192.377 235.301,190.57 227.589,190.57 C221.242,190.57 216.462,191.915 213.248,194.605 C210.034,197.294 208.428,200.566 208.428,204.42 C208.428,207.23 209.753,209.759 212.405,212.007 C214.975,214.336 221.081,216.503 230.722,218.511 C254.583,223.649 271.675,228.848 281.999,234.107 C292.323,239.366 299.834,245.889 304.534,253.677 C309.234,261.465 311.584,270.176 311.584,279.811 C311.584,291.132 308.451,301.569 302.184,311.124 C295.918,320.678 287.161,327.924 275.913,332.862 C264.665,337.8 250.485,340.269 233.373,340.269 C203.326,340.269 182.518,334.488 170.949,322.926 C159.38,311.365 152.833,296.672 151.306,278.847 L203.246,275.596 z" fill="#009E9F" id="Shape"/>
    <path d="M227.705,157.758 L227.889,190.571 C235.459,190.618 241.404,192.424 245.726,195.989 C250.104,199.602 252.976,205.383 254.342,213.332 L305.8,210.321 C303.55,192.015 296.5,178.667 284.65,170.277 C272.8,161.887 255.587,157.691 233.012,157.691 C231.205,157.691 229.436,157.714 227.705,157.758 z M228.043,217.928 L228.31,265.729 C240.796,268.69 248.87,271.819 252.535,275.114 C256.551,278.727 258.56,282.822 258.56,287.399 C258.56,292.216 256.451,296.451 252.233,300.104 C248.015,303.757 242.01,305.584 234.217,305.584 C232.235,305.584 230.34,305.455 228.531,305.198 L228.728,340.221 C230.251,340.253 231.799,340.269 233.373,340.269 C250.485,340.269 264.665,337.8 275.913,332.862 C287.161,327.924 295.918,320.678 302.184,311.124 C308.451,301.569 311.584,291.132 311.584,279.811 C311.584,270.176 309.234,261.465 304.534,253.677 C299.834,245.889 292.323,239.366 281.999,234.107 C271.675,228.848 254.583,223.649 230.722,218.511 C229.796,218.318 228.903,218.124 228.043,217.928 z" fill="#007D7E" id="Shape"/>
    <path d="M-0,0 z" fill="#FFFFFF"/>
    <path d="M-0,0 z" fill="#FFFFFF"/>
    <path d="M-0,0 z" fill="#FFFFFF"/>
    <path d="M-0,-0 z" fill="#FFFFFF"/>
    <path d="M-0,-0 z" fill="#FFFFFF"/>
    <path d="M530.6,155.975 C532,165.175 533,169.775 535,174.575 C539.2,185.975 546.6,194.575 556.6,200.175 C567.4,206.375 584.2,209.975 601.2,209.975 C624.6,209.975 642.2,204.175 653.8,192.975 C663,183.975 667.8,171.175 667.8,156.175 C667.8,137.775 660.6,124.375 646.2,115.375 C638.6,110.575 629,107.175 613.8,103.975 C590.2,99.175 590.2,99.175 586.2,97.375 C579.8,94.375 576.8,90.175 576.8,84.575 C576.8,75.375 585.8,68.775 598,68.775 C613.2,68.775 620.4,74.175 622.8,87.175 L665.2,82.575 C662.6,71.175 660.2,65.175 655.2,58.575 C644.4,43.575 625,35.775 599.6,35.775 C560.2,35.775 535.4,55.175 535.4,85.975 C535.4,102.175 542.2,115.575 554.8,124.375 C562.2,129.575 568.6,131.975 587,135.975 C607.8,140.775 612.8,142.175 617,144.175 C622.2,146.575 625.4,151.975 625.4,158.175 C625.4,169.375 616.2,176.175 600.8,176.175 C590.6,176.175 582.2,172.775 577.4,166.775 C574.4,162.775 573,159.175 572.2,151.975 z" fill="#FFFFFF"/>
    <path d="M727.6,242.375 C726.4,233.775 726,224.575 726,213.375 L726,199.575 C725.8,196.775 725.8,194.175 725.8,192.375 C731.4,197.175 734.4,199.375 739.6,201.575 C747,204.775 757.2,206.775 766.6,206.775 C783,206.775 797.6,201.175 807.8,190.975 C819.2,179.575 825.2,162.975 825.2,142.575 C825.2,122.375 819.8,106.575 809.2,95.975 C798.8,85.775 784.4,80.575 766.8,80.575 C750.2,80.575 737.8,84.775 725.8,94.775 C725.8,93.775 726,92.175 726,90.975 L726,84.175 L686.6,84.175 C687.8,94.375 688.2,102.575 688.2,115.575 L688.2,213.175 C688.2,223.775 687.6,233.775 686.6,242.375 z M757.8,176.575 C739.8,176.575 726.4,162.375 726.4,143.575 C726.4,125.375 740,110.775 756.6,110.775 C775.4,110.775 786.2,122.575 786.2,142.975 C786.2,154.375 783,163.575 777.4,168.975 C772.2,173.975 765.4,176.575 757.8,176.575 z" fill="#FFFFFF"/>
    <path d="M841.8,39.775 L841.8,69.775 L882.4,69.775 L882.4,39.775 z M841.2,84.175 C842.4,93.175 842.8,101.375 842.8,114.375 L842.8,175.975 C842.8,188.775 842.4,196.375 841.2,206.175 L883,206.175 C882,197.575 881.4,186.775 881.4,175.975 L881.4,114.375 C881.4,100.375 881.8,92.375 883,84.175 z" fill="#FFFFFF"/>
    <path d="M904.2,39.775 C905.2,47.175 905.8,56.375 905.8,69.975 L905.8,175.975 C905.8,189.175 905.4,197.175 904.2,206.175 L945,206.175 C943.6,198.175 943.4,193.375 943.4,176.975 L943.4,168.975 L958.4,154.575 L973.6,179.375 C979.4,188.975 983.8,197.775 986.8,206.175 L1037.8,206.175 C1032.2,199.375 1031.4,198.175 1019.2,180.575 L985.8,131.775 L1014.8,103.775 C1025.6,93.175 1028,90.975 1035.8,84.175 L982.6,84.175 C978.8,89.975 974.4,95.175 965.2,104.375 L943.2,126.175 L943.2,69.975 C943.2,56.575 943.6,47.975 944.8,39.775 z" fill="#FFFFFF"/>
    <path d="M1130.8,127.175 C1116.4,127.575 1110.4,127.775 1102.6,128.575 C1084.6,130.175 1071.2,134.375 1061,141.575 C1051.4,148.175 1046.4,158.175 1046.4,170.775 C1046.4,181.775 1050.2,191.375 1057.4,197.975 C1065.4,205.375 1076.8,208.975 1092,208.975 C1108.4,208.975 1119.6,205.575 1130.8,196.975 L1130.8,206.175 L1169.6,206.175 C1168.6,197.175 1168.2,189.975 1168.2,177.775 L1168.2,123.775 C1168.2,105.775 1162.6,94.775 1149.8,87.775 C1142,83.575 1127.6,80.775 1112.8,80.775 C1093.4,80.775 1078.6,84.575 1067.8,92.175 C1059.4,98.175 1055,104.575 1051,116.375 L1089.2,122.575 C1092.2,112.775 1099,108.575 1111.8,108.575 C1125,108.575 1130.8,112.975 1130.8,122.575 z M1130.8,158.375 C1130.8,164.375 1128.2,169.775 1123.6,173.775 C1118.2,178.375 1109.2,181.375 1101,181.375 C1090.6,181.375 1084.6,177.175 1084.6,169.975 C1084.6,164.175 1089,159.175 1096.2,156.775 C1104.4,154.175 1113,153.175 1130.8,152.775 z" fill="#FFFFFF"/>
    <path d="M1300.6,141.975 L1338.2,141.975 C1353.4,141.975 1361.4,142.375 1370.2,143.375 L1370.2,106.375 C1361.4,107.375 1353.8,107.775 1338.2,107.775 L1300.6,107.775 L1300.6,74.975 L1346.6,74.975 C1363.4,74.975 1371.2,75.375 1380,76.375 L1380,38.375 C1370.6,39.575 1364,39.775 1346.4,39.775 L1288.6,39.775 C1273.2,39.775 1267.6,39.575 1259.4,39.175 C1260.6,48.575 1261,55.175 1261,68.375 L1261,171.975 C1261,189.375 1260.6,197.375 1259.2,206.175 L1302.2,206.175 C1300.8,197.375 1300.6,190.175 1300.6,171.375 z" fill="#FFFFFF"/>
    <path d="M1455.6,210.775 C1495.4,210.775 1521.8,184.375 1521.8,144.575 C1521.8,104.975 1496.2,79.575 1455.8,79.575 C1415.4,79.575 1389.8,104.975 1389.8,144.975 C1389.8,185.175 1415.4,210.775 1455.6,210.775 z M1456,109.575 C1473,109.575 1483.2,122.775 1483.2,145.175 C1483.2,167.375 1473.2,180.375 1455.8,180.375 C1438.4,180.375 1428,166.975 1428,144.775 C1428,122.775 1438.4,109.575 1456,109.575 z" fill="#FFFFFF"/>
    <path d="M1637.6,84.175 C1628.2,82.175 1624.2,81.775 1617.8,81.775 C1599.6,81.775 1587.6,87.175 1577.8,99.975 L1577.8,84.175 L1538,84.175 C1539.2,92.775 1539.6,99.775 1539.6,114.375 L1539.6,175.975 C1539.6,188.975 1539.2,196.175 1538,206.175 L1579.4,206.175 C1578.2,196.575 1577.8,188.975 1577.8,176.175 L1577.8,144.975 C1578.6,136.175 1580,131.975 1583.8,127.175 C1589.6,119.975 1597.4,116.375 1607.6,116.375 C1613.8,116.375 1618.8,117.375 1628,120.175 z" fill="#FFFFFF"/>
    <path d="M1802,206.175 C1836.8,206.175 1857.2,189.175 1857.2,160.375 C1857.2,147.175 1852.8,136.375 1844.2,128.775 C1838.4,123.775 1833.2,121.375 1823.4,119.175 C1831.6,116.175 1835.2,114.175 1839.6,110.375 C1847.2,103.575 1851.2,93.975 1851.2,81.775 C1851.2,55.375 1832.2,39.775 1799.8,39.775 L1747.4,39.775 C1731,39.775 1728.2,39.775 1718,39.175 C1719.2,48.775 1719.6,57.375 1719.6,67.975 L1719.6,177.375 C1719.6,191.375 1719.2,198.175 1718,206.775 C1726.6,206.375 1732.4,206.175 1747.6,206.175 z M1758.8,103.975 L1758.8,72.575 L1793.6,72.575 C1805,72.575 1811.2,78.175 1811.2,87.975 C1811.2,97.775 1804.6,103.975 1794,103.975 z M1758.8,135.975 L1795.4,135.975 C1808.2,135.975 1815.8,142.775 1815.8,154.375 C1815.8,166.175 1808.2,173.175 1795.6,173.175 L1758.8,173.175 z" fill="#FFFFFF"/>
    <path d="M1960,84.175 C1961.2,94.575 1961.6,102.975 1961.6,114.175 L1961.6,155.175 C1953.8,167.975 1942.6,175.775 1931.6,175.775 C1925.8,175.775 1921.4,173.775 1918.6,170.175 C1916.2,166.975 1915.4,163.375 1915.4,155.175 L1915.4,114.175 C1915.4,102.175 1915.8,93.775 1917,84.175 L1875.4,84.175 C1876.4,92.575 1877,102.575 1877,114.175 L1877,164.375 C1877,180.175 1880.4,189.975 1888.4,197.975 C1896,205.375 1906.8,209.175 1920.2,209.175 C1937.2,209.175 1948.6,204.375 1961.8,191.975 C1961.6,193.375 1961.6,196.375 1961.6,197.375 L1961.6,205.975 L2001.4,205.975 C2000.2,197.975 1999.8,189.775 1999.8,175.975 L1999.8,114.175 C1999.8,101.975 2000.2,93.575 2001.4,84.175 z" fill="#FFFFFF"/>
    <path d="M2017.8,169.775 C2019.8,179.375 2021.8,184.175 2025.8,189.775 C2035.4,202.975 2053.2,209.775 2078.4,209.775 C2099.8,209.775 2116.2,204.775 2125.8,195.175 C2132.4,188.775 2136,179.175 2136,168.575 C2136,154.175 2129.8,144.375 2116.8,137.975 C2109.8,134.375 2103.6,132.575 2084,128.375 C2064.2,123.975 2060,121.975 2060,116.575 C2060,111.375 2066.4,107.975 2076.8,107.975 C2087.6,107.975 2092.6,111.575 2093.6,119.775 L2132.2,115.575 C2129,104.375 2125.8,98.575 2119.2,92.775 C2109.8,84.175 2095.6,79.975 2076.6,79.975 C2043.2,79.975 2023,94.575 2023,118.575 C2023,125.375 2024.8,132.175 2028,137.575 C2031.8,143.575 2038.4,148.175 2048,151.775 C2054.6,153.975 2062.4,155.975 2077.6,158.975 C2088.6,161.175 2091.2,161.975 2094,163.575 C2096.8,165.175 2098.4,167.775 2098.4,170.775 C2098.4,176.975 2091.6,180.375 2079.6,180.375 C2066.2,180.375 2059.4,175.775 2057.4,165.375 z" fill="#FFFFFF"/>
    <path d="M2153.8,39.775 L2153.8,69.775 L2194.4,69.775 L2194.4,39.775 z M2153.2,84.175 C2154.4,93.175 2154.8,101.375 2154.8,114.375 L2154.8,175.975 C2154.8,188.775 2154.4,196.375 2153.2,206.175 L2195,206.175 C2194,197.575 2193.4,186.775 2193.4,175.975 L2193.4,114.375 C2193.4,100.375 2193.8,92.375 2195,84.175 z" fill="#FFFFFF"/>
    <path d="M2257.6,206.175 C2256.4,195.775 2256,187.375 2256,175.975 L2256,135.575 C2264.6,121.575 2274.6,114.575 2285.8,114.575 C2291.8,114.575 2296.4,116.575 2299,120.175 C2301.4,123.575 2302.2,126.975 2302.2,134.975 L2302.2,175.975 C2302.2,188.175 2301.8,196.575 2300.6,206.175 L2342.2,206.175 C2341.2,197.775 2340.6,187.775 2340.6,176.175 L2340.6,125.975 C2340.6,110.175 2337.2,100.375 2329.2,92.375 C2321.8,84.975 2310.8,81.175 2297,81.175 C2280.6,81.175 2268.4,86.175 2255.8,98.175 C2255.8,96.775 2256,93.775 2256,92.575 L2256,84.175 L2216.2,84.175 C2217.4,92.175 2217.8,100.575 2217.8,114.375 L2217.8,175.975 C2217.8,188.375 2217.4,196.775 2216.2,206.175 z" fill="#FFFFFF"/>
    <path d="M2484.6,156.375 C2484.4,154.375 2484.4,153.175 2484.4,152.375 C2483.8,140.975 2483,132.575 2481.4,126.175 C2474.4,96.375 2452.6,79.375 2421.4,79.375 C2383.2,79.375 2357.8,105.575 2357.8,145.175 C2357.8,164.975 2364.2,181.975 2376,193.975 C2387.4,205.375 2402.8,210.975 2422.4,210.975 C2442.2,210.975 2458.2,205.175 2469.6,193.975 C2475.2,188.375 2478.2,183.775 2482.8,173.375 L2448,163.575 C2446.4,168.775 2445,170.975 2442,173.775 C2436.8,178.575 2429.8,181.175 2421.8,181.175 C2406,181.175 2396.6,172.575 2394.6,156.375 z M2395.2,128.775 C2398.6,115.575 2407.2,109.175 2421.4,109.175 C2435.2,109.175 2443.8,115.975 2446.6,128.775 z" fill="#FFFFFF"/>
    <path d="M2496,169.775 C2498,179.375 2500,184.175 2504,189.775 C2513.6,202.975 2531.4,209.775 2556.6,209.775 C2578,209.775 2594.4,204.775 2604,195.175 C2610.6,188.775 2614.2,179.175 2614.2,168.575 C2614.2,154.175 2608,144.375 2595,137.975 C2588,134.375 2581.8,132.575 2562.2,128.375 C2542.4,123.975 2538.2,121.975 2538.2,116.575 C2538.2,111.375 2544.6,107.975 2555,107.975 C2565.8,107.975 2570.8,111.575 2571.8,119.775 L2610.4,115.575 C2607.2,104.375 2604,98.575 2597.4,92.775 C2588,84.175 2573.8,79.975 2554.8,79.975 C2521.4,79.975 2501.2,94.575 2501.2,118.575 C2501.2,125.375 2503,132.175 2506.2,137.575 C2510,143.575 2516.6,148.175 2526.2,151.775 C2532.8,153.975 2540.6,155.975 2555.8,158.975 C2566.8,161.175 2569.4,161.975 2572.2,163.575 C2575,165.175 2576.6,167.775 2576.6,170.775 C2576.6,176.975 2569.8,180.375 2557.8,180.375 C2544.4,180.375 2537.6,175.775 2535.6,165.375 z" fill="#FFFFFF"/>
    <path d="M2626.8,169.775 C2628.8,179.375 2630.8,184.175 2634.8,189.775 C2644.4,202.975 2662.2,209.775 2687.4,209.775 C2708.8,209.775 2725.2,204.775 2734.8,195.175 C2741.4,188.775 2745,179.175 2745,168.575 C2745,154.175 2738.8,144.375 2725.8,137.975 C2718.8,134.375 2712.6,132.575 2693,128.375 C2673.2,123.975 2669,121.975 2669,116.575 C2669,111.375 2675.4,107.975 2685.8,107.975 C2696.6,107.975 2701.6,111.575 2702.6,119.775 L2741.2,115.575 C2738,104.375 2734.8,98.575 2728.2,92.775 C2718.8,84.175 2704.6,79.975 2685.6,79.975 C2652.2,79.975 2632,94.575 2632,118.575 C2632,125.375 2633.8,132.175 2637,137.575 C2640.8,143.575 2647.4,148.175 2657,151.775 C2663.6,153.975 2671.4,155.975 2686.6,158.975 C2697.6,161.175 2700.2,161.975 2703,163.575 C2705.8,165.175 2707.4,167.775 2707.4,170.775 C2707.4,176.975 2700.6,180.375 2688.6,180.375 C2675.2,180.375 2668.4,175.775 2666.4,165.375 z" fill="#FFFFFF"/>
    <text transform="matrix(1, 0, 0, 1, 1065.8, 530.048)">
      <tspan x="-535.2" y="-74.5" font-family="HiraKakuStd-W8" font-size="200" fill="#FFFFFF">Admin</tspan>
    </text>
  </g>
</svg>
