<?xml version="1.0" encoding="UTF-8"?>
<!DOCTYPE svg PUBLIC "-//W3C//DTD SVG 1.1//EN" "http://www.w3.org/Graphics/SVG/1.1/DTD/svg11.dtd">
<svg version="1.1" xmlns="http://www.w3.org/2000/svg" xmlns:xlink="http://www.w3.org/1999/xlink" x="0" y="0" width="512" height="512" viewBox="0, 0, 512, 512">
  <g id="Layer_1">
    <path d="M53.917,60.691 L458.083,60.691 C480.405,60.691 498.5,78.713 498.5,100.945 L498.5,309.437 C498.5,331.669 480.405,349.691 458.083,349.691 L186,349.691 L78,445 L87.813,349.691 L53.917,349.691 C31.595,349.691 13.5,331.669 13.5,309.437 L13.5,100.945 C13.5,78.713 31.595,60.691 53.917,60.691 z" fill="#E1E1E2" fill-opacity="0.452"/>
    <path d="M436.897,46.185 L75.093,46.185 C33.687,46.185 0,79.877 0,121.288 L0,289.093 C0,327.1 28.378,358.605 65.054,363.528 L65.054,455.774 C65.054,459.834 67.501,463.495 71.251,465.049 C72.493,465.564 73.797,465.814 75.091,465.814 C77.703,465.814 80.271,464.793 82.192,462.874 L180.869,364.197 L436.896,364.197 C478.308,364.197 511.999,330.505 511.999,289.094 L511.999,121.288 C512,79.876 478.308,46.185 436.897,46.185 z M491.922,289.094 C491.922,319.435 467.238,344.119 436.897,344.119 L176.71,344.119 C174.048,344.119 171.494,345.177 169.611,347.059 L85.132,431.538 L85.132,354.158 C85.132,348.613 80.637,344.119 75.093,344.119 C44.757,344.119 20.078,319.435 20.078,289.094 L20.078,121.288 C20.078,90.947 44.757,66.263 75.093,66.263 L436.896,66.263 C467.237,66.263 491.921,90.947 491.921,121.288 L491.921,289.094 z" fill="#FFFFFF"/>
    <path d="M384.492,165.511 C362.615,165.511 344.817,183.314 344.817,205.196 C344.817,227.073 362.616,244.871 384.492,244.871 C406.374,244.871 424.177,227.072 424.177,205.196 C424.177,183.314 406.374,165.511 384.492,165.511 z M384.492,224.793 C373.687,224.793 364.895,216.002 364.895,205.196 C364.895,194.385 373.686,185.589 384.492,185.589 C395.303,185.589 404.099,194.384 404.099,205.196 C404.099,216.001 395.303,224.793 384.492,224.793 z" fill="#FFFFFF"/>
    <path d="M256,165.511 C234.118,165.511 216.315,183.314 216.315,205.196 C216.315,227.073 234.118,244.871 256,244.871 C277.877,244.871 295.675,227.072 295.675,205.196 C295.675,183.314 277.877,165.511 256,165.511 z M256,224.793 C245.189,224.793 236.393,216.002 236.393,205.196 C236.393,194.385 245.188,185.589 256,185.589 C266.805,185.589 275.597,194.384 275.597,205.196 C275.597,216.001 266.805,224.793 256,224.793 z" fill="#FFFFFF"/>
    <path d="M127.498,165.511 C105.615,165.511 87.813,183.314 87.813,205.196 C87.813,227.073 105.615,244.871 127.498,244.871 C149.38,244.871 167.183,227.072 167.183,205.196 C167.183,183.314 149.38,165.511 127.498,165.511 z M127.498,224.793 C116.687,224.793 107.891,216.002 107.891,205.196 C107.891,194.385 116.686,185.589 127.498,185.589 C138.31,185.589 147.105,194.384 147.105,205.196 C147.105,216.001 138.309,224.793 127.498,224.793 z" fill="#FFFFFF"/>
    <path d="M403.679,96.381 L310.319,96.381 C304.774,96.381 300.28,100.876 300.28,106.42 C300.28,111.964 304.775,116.459 310.319,116.459 L403.679,116.459 C409.224,116.459 413.718,111.964 413.718,106.42 C413.718,100.876 409.224,96.381 403.679,96.381 z" fill="#FFFFFF"/>
    <path d="M441.726,96.381 C428.807,96.381 428.785,116.459 441.726,116.459 C454.645,116.459 454.666,96.381 441.726,96.381 z" fill="#FFFFFF"/>
  </g>
</svg>
