<?xml version="1.0" standalone="no"?>
<!DOCTYPE svg PUBLIC "-//W3C//DTD SVG 20010904//EN"
 "http://www.w3.org/TR/2001/REC-SVG-20010904/DTD/svg10.dtd">
<svg version="1.0" xmlns="http://www.w3.org/2000/svg"
 width="260.000000pt" height="260.000000pt" viewBox="0 0 260.000000 260.000000"
 preserveAspectRatio="xMidYMid meet">
<metadata>
Created by potrace 1.11, written by Peter Selinger 2001-2013
</metadata>
<g transform="translate(0.000000,260.000000) scale(0.100000,-0.100000)"
fill="#000000" stroke="none">
<path d="M885 2394 c-220 -113 -468 -239 -552 -281 -124 -63 -153 -81 -158
-102 -3 -15 -9 -107 -12 -206 -4 -150 -1 -206 17 -335 38 -280 93 -478 179
-647 17 -34 31 -73 31 -86 0 -45 -48 -216 -80 -281 -17 -36 -49 -88 -71 -116
-22 -28 -39 -54 -36 -56 9 -9 168 17 250 41 45 13 108 35 140 50 l58 25 67
-61 c140 -127 410 -283 554 -319 41 -11 52 -9 114 16 308 122 558 321 739 589
103 153 201 389 243 585 55 255 74 520 50 731 l-12 107 -550 272 c-303 150
-555 274 -561 276 -5 1 -190 -89 -410 -202z m869 -263 l463 -228 6 -48 c12
-83 7 -376 -7 -485 -64 -475 -298 -841 -675 -1054 -98 -56 -199 -96 -242 -96
-37 0 -173 55 -259 106 -97 56 -166 109 -252 192 l-78 75 -82 -41 c-46 -23
-98 -45 -117 -48 -31 -7 -34 -5 -27 12 32 77 49 141 59 214 l10 85 -35 75
c-54 113 -106 279 -129 409 -23 128 -37 472 -22 551 l8 45 455 232 c250 128
456 232 458 233 1 0 211 -103 466 -229z"/>
<path d="M1156 1844 c-211 -46 -323 -202 -272 -378 38 -130 145 -196 440 -272
37 -10 82 -27 100 -39 119 -80 18 -220 -140 -191 -54 11 -110 67 -125 127
l-13 51 -121 -6 c-66 -4 -137 -9 -158 -12 -37 -6 -37 -6 -31 -42 13 -69 46
-144 88 -195 72 -88 169 -124 361 -133 193 -10 307 22 404 112 70 64 102 131
109 225 10 139 -52 244 -183 308 -35 18 -137 50 -227 73 -174 43 -208 61 -208
108 0 54 65 88 145 76 57 -9 101 -46 117 -97 l12 -40 115 6 c64 3 135 8 159
11 40 5 42 7 36 32 -34 157 -116 239 -276 277 -79 19 -242 18 -332 -1z"/>
</g>
</svg>
