<?xml version="1.0" encoding="UTF-8" standalone="no"?>
<svg width="88px" height="100px" viewBox="0 0 88 100" version="1.1" xmlns="http://www.w3.org/2000/svg" xmlns:xlink="http://www.w3.org/1999/xlink" xmlns:sketch="http://www.bohemiancoding.com/sketch/ns">
    <!-- Generator: Sketch 3.4.4 (17249) - http://www.bohemiancoding.com/sketch -->
    <title>spikaLogo</title>
    <desc>Created with Sketch.</desc>
    <defs></defs>
    <g id="Page-1" stroke="none" stroke-width="1" fill="none" fill-rule="evenodd" sketch:type="MSPage">
        <g id="spikaLogo" sketch:type="MSLayerGroup">
            <path d="M9.88677333,62.1605 C9.47251048,71.144875 7.60870286,83.22425 1.01914667,89.452125 C13.6051327,89.452125 26.4924349,81.173375 34.1362851,75.209" id="Shape" fill="#009E9F" sketch:type="MSShapeGroup"></path>
            <path d="M43.5720222,0.03525 L0.516452698,21.851375 C-5.50624381,88.608375 44.1316273,99.91725 44.1316273,99.91725 C44.1316273,99.91725 93.6399162,88.053625 86.86912,21.368125 L43.5720222,0.03525 Z" id="Shape" fill="#009E9F" sketch:type="MSShapeGroup"></path>
            <path d="M43.5720222,0.03525 L44.1316273,99.91725 C44.1316273,99.91725 93.6399162,88.053625 86.86912,21.368125 L43.5720222,0.03525 Z" id="Shape" fill="#007D7E" sketch:type="MSShapeGroup"></path>
            <path d="M79.5437219,26.999625 L43.7291219,9.353375 L8.11427365,27.39925 C3.13248762,82.61975 44.1920406,91.97425 44.1920406,91.97425 C44.1920406,91.97425 85.1446508,82.160875 79.5437219,26.999625" id="Shape" fill="#ECF0FF" sketch:type="MSShapeGroup"></path>
            <path d="M43.8086724,9.34125 L8.19369905,27.387125 C3.2120381,82.607625 44.2715911,91.962125 44.2715911,91.962125" id="Shape" fill="#FFFFFF" sketch:type="MSShapeGroup"></path>
            <path d="M13.8699257,57.1365 C15.2975816,64.552625 16.1498724,74.780125 11.9942356,81.158125 C22.2695054,78.687625 31.1635238,69.399125 36.2317397,63.029375" id="Shape" fill="#FFFFFF" sketch:type="MSShapeGroup"></path>
            <path d="M38.0027384,56.21075 C38.2661556,58.1854167 38.8024959,59.6899583 39.6117594,60.724375 C40.9290119,62.3982083 42.8108726,63.235125 45.2573416,63.235125 C47.0827498,63.235125 48.4894341,62.80725 49.4773943,61.9515 C50.4654379,61.0958333 50.9594597,60.1037917 50.9594597,58.975375 C50.9594597,57.903375 50.4889945,56.9442083 49.5480641,56.097875 C48.6070504,55.2515417 46.4240402,54.45225 42.9990337,53.7 C37.3910586,52.4399167 33.3921046,50.766125 31.0021714,48.678625 C28.5933096,46.5910417 27.3888787,43.929875 27.3888787,40.695125 C27.3888787,38.5699583 28.0052281,36.5623333 29.237927,34.67225 C30.4705424,32.7821667 32.3241769,31.2964167 34.7988305,30.215 C37.273484,29.1335833 40.665553,28.592875 44.9750375,28.592875 C50.2631429,28.592875 54.2950762,29.5755417 57.0708375,31.540875 C59.8465987,33.5062083 61.4979382,36.6328333 62.0248559,40.92075 L49.9714578,41.626 C49.6515048,39.7641667 48.9787446,38.4100833 47.9531771,37.56375 C46.9275263,36.7175 45.5113778,36.294375 43.7047314,36.294375 C42.2181215,36.294375 41.098411,36.609375 40.3456,37.239375 C39.5928724,37.869375 39.2165086,38.63575 39.2165086,39.5385 C39.2165086,40.19675 39.5270389,40.7891667 40.1480997,41.31575 C40.7502317,41.8611667 42.1804309,42.3689583 44.4386971,42.839125 C50.0279103,44.0427083 54.0316174,45.2604583 56.4498184,46.492375 C58.8680195,47.7242083 60.6275526,49.25225 61.7284178,51.0765 C62.8293663,52.90075 63.3798406,54.9412917 63.3798406,57.198125 C63.3798406,59.849875 62.6458749,62.29475 61.1779435,64.53275 C59.7100954,66.77075 57.6588772,68.4680417 55.0242889,69.624625 C52.3896171,70.7812917 49.0680929,71.359625 45.0597162,71.359625 C38.0215003,71.359625 33.1474493,70.0055417 30.4375632,67.297375 C27.727677,64.5892083 26.1939539,61.1475417 25.8363937,56.972375 L38.0027384,56.21075 Z" id="Shape" fill="#009E9F" sketch:type="MSShapeGroup"></path>
            <path d="M43.7321086,28.6085148 L43.775171,36.2945906 C45.5482251,36.3054761 46.9408938,36.7285293 47.9531771,37.56375 C48.9787446,38.4100833 49.6515048,39.7641667 49.9714578,41.626 L62.0248559,40.92075 C61.4979382,36.6328333 59.8465987,33.5062083 57.0708375,31.540875 C54.2950762,29.5755417 50.2631429,28.592875 44.9750375,28.592875 C44.5518825,28.592875 44.1375729,28.5980883 43.7321086,28.6085148 Z M43.8110732,42.7026454 L43.8738057,53.8995503 C46.7983838,54.5931935 48.6898033,55.3259684 49.5480641,56.097875 C50.4889945,56.9442083 50.9594597,57.903375 50.9594597,58.975375 C50.9594597,60.1037917 50.4654379,61.0958333 49.4773943,61.9515 C48.4894341,62.80725 47.0827498,63.235125 45.2573416,63.235125 C44.7930977,63.235125 44.3491849,63.2049883 43.9256032,63.144715 L43.9715661,71.34848 C44.3283453,71.35591 44.691062,71.359625 45.0597162,71.359625 C49.0680929,71.359625 52.3896171,70.7812917 55.0242889,69.624625 C57.6588772,68.4680417 59.7100954,66.77075 61.1779435,64.53275 C62.6458749,62.29475 63.3798406,59.849875 63.3798406,57.198125 C63.3798406,54.9412917 62.8293663,52.90075 61.7284178,51.0765 C60.6275526,49.25225 58.8680195,47.7242083 56.4498184,46.492375 C54.0316174,45.2604583 50.0279103,44.0427083 44.4386971,42.839125 C44.2218542,42.7939787 44.0126462,42.7484855 43.8110732,42.7026454 Z" id="Shape" fill="#007D7E" sketch:type="MSShapeGroup"></path>
        </g>
    </g>
</svg>