<?xml version="1.0" encoding="UTF-8"?>
<!DOCTYPE svg PUBLIC "-//W3C//DTD SVG 1.1//EN" "http://www.w3.org/Graphics/SVG/1.1/DTD/svg11.dtd">
<svg version="1.1" xmlns="http://www.w3.org/2000/svg" xmlns:xlink="http://www.w3.org/1999/xlink" x="0" y="0" width="512" height="512" viewBox="0, 0, 512, 512">
  <g id="Layer_1">
    <g>
      <path d="M0,-0 L512,-0 L512,512 L0,512 L0,-0 z" fill="#FFFFFF" fill-opacity="0.746"/>
      <path d="M0,-0 L512,-0 L512,512 L0,512 L0,-0 z" fill-opacity="0" stroke="#000000" stroke-width="1"/>
    </g>
    <g id="chat">
      <path d="M334.611,117.258 L102.436,117.258 C91.689,117.258 82.946,126.001 82.946,136.747 L82.946,276.039 C82.946,286.785 91.689,295.529 102.436,295.529 L117.491,295.529 L117.491,347.384 C117.491,350.686 119.48,353.663 122.531,354.927 C123.541,355.347 124.602,355.549 125.654,355.549 C127.779,355.549 129.867,354.719 131.429,353.158 L189.058,295.529 L200.62,295.529 C205.13,295.529 208.785,291.874 208.785,287.365 C208.785,282.854 205.129,279.199 200.62,279.199 C200.62,279.199 185.282,279.21 185.122,279.226 C183.221,279.356 181.355,280.138 179.902,281.591 L133.82,327.673 C133.82,327.673 133.806,286.848 133.78,286.637 C133.411,282.468 129.915,279.199 125.651,279.199 L102.436,279.199 C100.693,279.199 99.276,277.782 99.276,276.04 L99.276,136.747 C99.276,135.004 100.694,133.587 102.436,133.587 L334.611,133.587 C336.354,133.587 337.771,135.005 337.771,136.747 L337.771,190.187 C337.771,194.697 341.427,198.352 345.936,198.352 C350.444,198.352 354.1,194.697 354.1,190.187 L354.1,136.747 C354.1,126.001 345.358,117.258 334.611,117.258 z" fill="#000000"/>
      <path d="M409.565,217.125 L247.046,217.125 C236.3,217.125 227.557,225.868 227.557,236.615 L227.557,331.639 C227.557,342.385 236.299,351.128 247.046,351.128 L348.792,351.128 L390.014,392.35 C391.577,393.913 393.665,394.742 395.789,394.742 C396.841,394.742 397.903,394.539 398.913,394.12 C401.963,392.856 403.953,389.88 403.953,386.577 L403.953,351.128 L409.564,351.128 C420.31,351.128 429.054,342.385 429.054,331.638 L429.054,236.614 C429.054,225.868 420.312,217.125 409.565,217.125 z M412.725,331.639 C412.725,333.381 411.308,334.798 409.566,334.798 L395.792,334.798 C391.495,334.798 387.981,338.119 387.659,342.334 C387.638,342.512 387.624,366.865 387.624,366.865 L357.979,337.22 C357.948,337.189 357.916,337.16 357.885,337.129 C357.768,337.015 357.658,336.916 357.554,336.828 C356.117,335.568 354.24,334.798 352.179,334.798 L247.046,334.798 C245.303,334.798 243.887,333.38 243.887,331.638 L243.887,236.614 C243.887,234.871 245.304,233.454 247.046,233.454 L409.566,233.454 C411.308,233.454 412.725,234.872 412.725,236.614 L412.725,331.639 z" fill="#000000"/>
      <path d="M328.307,275.962 C323.8,275.962 320.143,279.62 320.143,284.127 C320.143,288.634 323.8,292.291 328.307,292.291 C332.815,292.291 336.472,288.634 336.472,284.127 C336.472,279.62 332.814,275.962 328.307,275.962 z" fill="#000000"/>
      <path d="M292.823,171.238 C292.823,171.238 144.225,171.238 144.225,171.238 C139.716,171.238 136.06,174.893 136.06,179.403 C136.06,183.912 139.717,187.567 144.225,187.567 L292.823,187.567 C297.332,187.567 300.988,183.912 300.988,179.403 C300.988,174.893 297.332,171.238 292.823,171.238 z" fill="#000000"/>
      <path d="M200.62,225.219 L144.225,225.219 C139.716,225.219 136.06,228.874 136.06,233.383 C136.06,237.893 139.717,241.548 144.225,241.548 L200.62,241.548 C205.129,241.548 208.784,237.893 208.784,233.383 C208.784,228.874 205.129,225.219 200.62,225.219 z" fill="#000000"/>
      <path d="M290.366,275.962 C285.86,275.962 282.201,279.62 282.201,284.127 C282.201,288.634 285.86,292.291 290.366,292.291 C294.873,292.291 298.53,288.634 298.53,284.127 C298.53,279.62 294.873,275.962 290.366,275.962 z" fill="#000000"/>
      <path d="M366.24,275.962 C361.734,275.962 358.076,279.62 358.076,284.127 C358.076,288.634 361.734,292.291 366.24,292.291 C370.748,292.291 374.405,288.634 374.405,284.127 C374.405,279.62 370.747,275.962 366.24,275.962 z" fill="#000000"/>
    </g>
  </g>
</svg>
