<?xml version="1.0" encoding="UTF-8"?>
<!DOCTYPE svg PUBLIC "-//W3C//DTD SVG 1.1//EN" "http://www.w3.org/Graphics/SVG/1.1/DTD/svg11.dtd">
<svg version="1.1" xmlns="http://www.w3.org/2000/svg" xmlns:xlink="http://www.w3.org/1999/xlink" x="0" y="0" width="484.5" height="484.5" viewBox="0, 0, 484.5, 484.5">
  <g id="Layer_1">
    <path d="M135.751,100.131 L383.666,348.046 L383.666,378.798 C383.666,392.731 372.266,404.131 358.333,404.131 L54.333,404.131 C40.4,404.131 29,392.731 29,378.797 L29,125.464 C29,111.531 40.4,100.131 54.334,100.131 L135.751,100.131 z" fill="#FFFFFF"/>
    <path d="M358.334,100.131 C372.267,100.131 383.667,111.531 383.667,125.464 L383.667,214.131 L485,112.798 L485,382.883 L202.249,100.131 L358.334,100.131 z" fill="#FFFFFF"/>
    <path d="M35.249,-1.737 L486.237,449.251 L452.988,482.5 L2,31.512 L35.249,-1.737 z" fill="#FFFFFF"/>
  </g>
</svg>
