<?xml version="1.0" encoding="UTF-8"?>
<!DOCTYPE svg PUBLIC "-//W3C//DTD SVG 1.1//EN" "http://www.w3.org/Graphics/SVG/1.1/DTD/svg11.dtd">
<svg version="1.1" xmlns="http://www.w3.org/2000/svg" xmlns:xlink="http://www.w3.org/1999/xlink" x="0" y="0" width="444.819" height="444.819" viewBox="0, 0, 444.819, 444.819">
  <g id="Layer_1">
    <path d="M10.566,330.617 L31.975,352.033 C39.394,359.073 48.059,362.594 57.95,362.594 C68.045,362.594 76.607,359.073 83.65,352.033 L222.408,213.271 L361.165,352.029 C368.207,359.069 376.771,362.59 386.862,362.59 C396.758,362.59 405.421,359.069 412.841,352.029 L433.969,330.613 C441.203,323.384 444.818,314.721 444.818,304.632 C444.818,294.355 441.199,285.79 433.97,278.939 L248.106,93.074 C241.251,85.844 232.69,82.226 222.409,82.226 C212.321,82.226 203.659,85.843 196.432,93.074 L10.567,278.939 C3.524,285.983 0,294.547 0,304.632 C-0.001,314.533 3.523,323.191 10.566,330.617 z" fill="#FFFFFF"/>
  </g>
</svg>
