<?xml version="1.0" encoding="UTF-8"?>
<!DOCTYPE svg PUBLIC "-//W3C//DTD SVG 1.1//EN" "http://www.w3.org/Graphics/SVG/1.1/DTD/svg11.dtd">
<svg version="1.1" xmlns="http://www.w3.org/2000/svg" xmlns:xlink="http://www.w3.org/1999/xlink" x="0" y="0" width="484.5" height="484.5" viewBox="0, 0, 484.5, 484.5">
  <g id="Layer_1">
    <path d="M420.75,229.5 L377.4,229.5 C377.4,247.35 372.299,265.2 367.2,280.5 L397.8,311.1 C413.1,288.15 420.75,260.1 420.75,229.5 z" fill="#FFFFFF"/>
    <path d="M318.75,234.6 C318.75,232.05 318.75,232.05 318.75,229.5 L318.75,76.5 C318.75,33.15 285.6,-0 242.25,-0 C198.9,-0 165.75,33.15 165.75,76.5 L165.75,81.6 L318.75,234.6 z" fill="#FFFFFF"/>
    <path d="M45.9,25.5 L12.75,58.65 L165.75,211.65 L165.75,229.5 C165.75,272.85 198.9,306 242.25,306 C247.35,306 252.45,306 260.1,303.45 L303.451,346.8 C285.6,354.45 265.201,359.55 244.801,359.55 C173.401,359.55 109.651,306 109.651,229.5 L63.751,229.5 C63.751,316.2 132.601,387.6 216.751,400.35 L216.751,484.5 L267.751,484.5 L267.751,400.35 C290.701,397.8 313.651,387.6 331.501,377.401 L438.601,484.501 L471.751,451.351 L45.9,25.5 z" fill="#FFFFFF"/>
  </g>
</svg>
