<?xml version="1.0" encoding="UTF-8"?>
<!DOCTYPE svg PUBLIC "-//W3C//DTD SVG 1.1//EN" "http://www.w3.org/Graphics/SVG/1.1/DTD/svg11.dtd">
<svg version="1.1" xmlns="http://www.w3.org/2000/svg" xmlns:xlink="http://www.w3.org/1999/xlink" x="0" y="0" width="484.5" height="484.5" viewBox="0, 0, 484.5, 484.5">
  <g id="Layer_1">
    <path d="M242.25,306 C285.6,306 318.75,272.85 318.75,229.5 L318.75,76.5 C318.75,33.15 285.6,0 242.25,0 C198.9,0 165.75,33.15 165.75,76.5 L165.75,229.5 C165.75,272.85 198.9,306 242.25,306 z M377.4,229.5 C377.4,306 313.65,359.55 242.25,359.55 C170.85,359.55 107.1,306 107.1,229.5 L63.75,229.5 C63.75,316.2 132.6,387.6 216.75,400.35 L216.75,484.5 L267.75,484.5 L267.75,400.35 C351.9,387.6 420.75,316.201 420.75,229.5 L377.4,229.5 L377.4,229.5 z" fill="#FFFFFF"/>
  </g>
</svg>
