<?xml version="1.0" encoding="UTF-8"?>
<!DOCTYPE svg PUBLIC "-//W3C//DTD SVG 1.1//EN" "http://www.w3.org/Graphics/SVG/1.1/DTD/svg11.dtd">
<svg version="1.1" xmlns="http://www.w3.org/2000/svg" xmlns:xlink="http://www.w3.org/1999/xlink" x="0" y="0" width="3000" height="500" viewBox="0, 0, 3000, 500">
  <g id="Page-1">
    <path d="M83.215,300.996 C81.446,339.352 73.49,390.92 45.358,417.508 C99.089,417.508 154.107,382.165 186.739,356.702" fill="#009E9F" id="Shape"/>
    <path d="M227.022,35.775 L43.212,128.911 C17.5,413.906 229.411,462.185 229.411,462.185 C229.411,462.185 440.769,411.538 411.863,126.848 L227.022,35.775 z" fill="#009E9F" id="Shape"/>
    <path d="M227.022,35.775 L229.411,462.185 C229.411,462.185 440.769,411.538 411.863,126.848 L227.022,35.775 z" fill="#007D7E" id="Shape"/>
    <path d="M380.929,150.838 L228.032,75.504 L75.987,152.544 C54.719,388.288 230.008,428.224 230.008,428.224 C230.008,428.224 404.84,386.329 380.929,150.838" fill="#ECF0FF" id="Shape"/>
    <path d="M228.032,75.504 L75.987,152.544 C54.72,388.288 230.009,428.224 230.009,428.224" fill="#FFFFFF" id="Shape"/>
    <path d="M100.22,279.548 C106.314,311.209 109.953,354.871 92.212,382.1 C136.079,371.553 174.048,331.899 195.685,304.706" fill="#FFFFFF" id="Shape"/>
    <path d="M203.246,275.596 C204.37,284.026 206.66,290.449 210.115,294.865 C215.739,302.011 223.773,305.584 234.217,305.584 C242.01,305.584 248.015,303.757 252.233,300.104 C256.451,296.451 258.56,292.216 258.56,287.399 C258.56,282.822 256.551,278.727 252.535,275.114 C248.517,271.501 239.198,268.089 224.576,264.877 C200.635,259.498 183.562,252.352 173.36,243.44 C163.076,234.528 157.934,223.167 157.934,209.358 C157.934,200.285 160.565,191.714 165.828,183.645 C171.09,175.576 179.003,169.233 189.568,164.617 C200.133,160 214.614,157.691 233.012,157.691 C255.587,157.691 272.8,161.887 284.65,170.277 C296.5,178.667 303.55,192.015 305.8,210.321 L254.342,213.332 C252.976,205.383 250.104,199.602 245.726,195.989 C241.347,192.377 235.301,190.57 227.589,190.57 C221.242,190.57 216.462,191.915 213.248,194.605 C210.034,197.294 208.428,200.566 208.428,204.42 C208.428,207.23 209.753,209.759 212.405,212.007 C214.975,214.336 221.081,216.503 230.722,218.511 C254.583,223.649 271.675,228.848 281.999,234.107 C292.323,239.366 299.834,245.889 304.534,253.677 C309.234,261.465 311.584,270.176 311.584,279.811 C311.584,291.132 308.451,301.569 302.184,311.124 C295.918,320.678 287.161,327.924 275.913,332.862 C264.665,337.8 250.485,340.269 233.373,340.269 C203.326,340.269 182.518,334.488 170.949,322.926 C159.38,311.365 152.833,296.672 151.306,278.847 L203.246,275.596 z" fill="#009E9F" id="Shape"/>
    <path d="M227.705,157.758 L227.889,190.571 C235.459,190.618 241.404,192.424 245.726,195.989 C250.104,199.602 252.976,205.383 254.342,213.332 L305.8,210.321 C303.55,192.015 296.5,178.667 284.65,170.277 C272.8,161.887 255.587,157.691 233.012,157.691 C231.205,157.691 229.436,157.714 227.705,157.758 z M228.043,217.928 L228.31,265.729 C240.796,268.69 248.87,271.819 252.535,275.114 C256.551,278.727 258.56,282.822 258.56,287.399 C258.56,292.216 256.451,296.451 252.233,300.104 C248.015,303.757 242.01,305.584 234.217,305.584 C232.235,305.584 230.34,305.455 228.531,305.198 L228.728,340.221 C230.251,340.253 231.799,340.269 233.373,340.269 C250.485,340.269 264.665,337.8 275.913,332.862 C287.161,327.924 295.918,320.678 302.184,311.124 C308.451,301.569 311.584,291.132 311.584,279.811 C311.584,270.176 309.234,261.465 304.534,253.677 C299.834,245.889 292.323,239.366 281.999,234.107 C271.675,228.848 254.583,223.649 230.722,218.511 C229.796,218.318 228.903,218.124 228.043,217.928 z" fill="#007D7E" id="Shape"/>
    <path d="M-0,0 z" fill="#FFFFFF"/>
    <path d="M-0,0 z" fill="#FFFFFF"/>
    <path d="M-0,0 z" fill="#FFFFFF"/>
    <path d="M-0,-0 z" fill="#FFFFFF"/>
    <path d="M-0,-0 z" fill="#FFFFFF"/>
    <path d="M530.6,268.764 C532,277.964 533,282.564 535,287.364 C539.2,298.764 546.6,307.364 556.6,312.964 C567.4,319.164 584.2,322.764 601.2,322.764 C624.6,322.764 642.2,316.964 653.8,305.764 C663,296.764 667.8,283.964 667.8,268.964 C667.8,250.564 660.6,237.164 646.2,228.164 C638.6,223.364 629,219.964 613.8,216.764 C590.2,211.964 590.2,211.964 586.2,210.164 C579.8,207.164 576.8,202.964 576.8,197.364 C576.8,188.164 585.8,181.564 598,181.564 C613.2,181.564 620.4,186.964 622.8,199.964 L665.2,195.364 C662.6,183.964 660.2,177.964 655.2,171.364 C644.4,156.364 625,148.564 599.6,148.564 C560.2,148.564 535.4,167.964 535.4,198.764 C535.4,214.964 542.2,228.364 554.8,237.164 C562.2,242.364 568.6,244.764 587,248.764 C607.8,253.564 612.8,254.964 617,256.964 C622.2,259.364 625.4,264.764 625.4,270.964 C625.4,282.164 616.2,288.964 600.8,288.964 C590.6,288.964 582.2,285.564 577.4,279.564 C574.4,275.564 573,271.964 572.2,264.764 z" fill="#FFFFFF"/>
    <path d="M727.6,355.164 C726.4,346.564 726,337.364 726,326.164 L726,312.364 C725.8,309.564 725.8,306.964 725.8,305.164 C731.4,309.964 734.4,312.164 739.6,314.364 C747,317.564 757.2,319.564 766.6,319.564 C783,319.564 797.6,313.964 807.8,303.764 C819.2,292.364 825.2,275.764 825.2,255.364 C825.2,235.164 819.8,219.364 809.2,208.764 C798.8,198.564 784.4,193.364 766.8,193.364 C750.2,193.364 737.8,197.564 725.8,207.564 C725.8,206.564 726,204.964 726,203.764 L726,196.964 L686.6,196.964 C687.8,207.164 688.2,215.364 688.2,228.364 L688.2,325.964 C688.2,336.564 687.6,346.564 686.6,355.164 z M757.8,289.364 C739.8,289.364 726.4,275.164 726.4,256.364 C726.4,238.164 740,223.564 756.6,223.564 C775.4,223.564 786.2,235.364 786.2,255.764 C786.2,267.164 783,276.364 777.4,281.764 C772.2,286.764 765.4,289.364 757.8,289.364 z" fill="#FFFFFF"/>
    <path d="M841.8,152.564 L841.8,182.564 L882.4,182.564 L882.4,152.564 z M841.2,196.964 C842.4,205.964 842.8,214.164 842.8,227.164 L842.8,288.764 C842.8,301.564 842.4,309.164 841.2,318.964 L883,318.964 C882,310.364 881.4,299.564 881.4,288.764 L881.4,227.164 C881.4,213.164 881.8,205.164 883,196.964 z" fill="#FFFFFF"/>
    <path d="M904.2,152.564 C905.2,159.964 905.8,169.164 905.8,182.764 L905.8,288.764 C905.8,301.964 905.4,309.964 904.2,318.964 L945,318.964 C943.6,310.964 943.4,306.164 943.4,289.764 L943.4,281.764 L958.4,267.364 L973.6,292.164 C979.4,301.764 983.8,310.564 986.8,318.964 L1037.8,318.964 C1032.2,312.164 1031.4,310.964 1019.2,293.364 L985.8,244.564 L1014.8,216.564 C1025.6,205.964 1028,203.764 1035.8,196.964 L982.6,196.964 C978.8,202.764 974.4,207.964 965.2,217.164 L943.2,238.964 L943.2,182.764 C943.2,169.364 943.6,160.764 944.8,152.564 z" fill="#FFFFFF"/>
    <path d="M1130.8,239.964 C1116.4,240.364 1110.4,240.564 1102.6,241.364 C1084.6,242.964 1071.2,247.164 1061,254.364 C1051.4,260.964 1046.4,270.964 1046.4,283.564 C1046.4,294.564 1050.2,304.164 1057.4,310.764 C1065.4,318.164 1076.8,321.764 1092,321.764 C1108.4,321.764 1119.6,318.364 1130.8,309.764 L1130.8,318.964 L1169.6,318.964 C1168.6,309.964 1168.2,302.764 1168.2,290.564 L1168.2,236.564 C1168.2,218.564 1162.6,207.564 1149.8,200.564 C1142,196.364 1127.6,193.564 1112.8,193.564 C1093.4,193.564 1078.6,197.364 1067.8,204.964 C1059.4,210.964 1055,217.364 1051,229.164 L1089.2,235.364 C1092.2,225.564 1099,221.364 1111.8,221.364 C1125,221.364 1130.8,225.764 1130.8,235.364 z M1130.8,271.164 C1130.8,277.164 1128.2,282.564 1123.6,286.564 C1118.2,291.164 1109.2,294.164 1101,294.164 C1090.6,294.164 1084.6,289.964 1084.6,282.764 C1084.6,276.964 1089,271.964 1096.2,269.564 C1104.4,266.964 1113,265.964 1130.8,265.564 z" fill="#FFFFFF"/>
    <path d="M1300.6,254.764 L1338.2,254.764 C1353.4,254.764 1361.4,255.164 1370.2,256.164 L1370.2,219.164 C1361.4,220.164 1353.8,220.564 1338.2,220.564 L1300.6,220.564 L1300.6,187.764 L1346.6,187.764 C1363.4,187.764 1371.2,188.164 1380,189.164 L1380,151.164 C1370.6,152.364 1364,152.564 1346.4,152.564 L1288.6,152.564 C1273.2,152.564 1267.6,152.364 1259.4,151.964 C1260.6,161.364 1261,167.964 1261,181.164 L1261,284.764 C1261,302.164 1260.6,310.164 1259.2,318.964 L1302.2,318.964 C1300.8,310.164 1300.6,302.964 1300.6,284.164 z" fill="#FFFFFF"/>
    <path d="M1455.6,323.564 C1495.4,323.564 1521.8,297.164 1521.8,257.364 C1521.8,217.764 1496.2,192.364 1455.8,192.364 C1415.4,192.364 1389.8,217.764 1389.8,257.764 C1389.8,297.964 1415.4,323.564 1455.6,323.564 z M1456,222.364 C1473,222.364 1483.2,235.564 1483.2,257.964 C1483.2,280.164 1473.2,293.164 1455.8,293.164 C1438.4,293.164 1428,279.764 1428,257.564 C1428,235.564 1438.4,222.364 1456,222.364 z" fill="#FFFFFF"/>
    <path d="M1637.6,196.964 C1628.2,194.964 1624.2,194.564 1617.8,194.564 C1599.6,194.564 1587.6,199.964 1577.8,212.764 L1577.8,196.964 L1538,196.964 C1539.2,205.564 1539.6,212.564 1539.6,227.164 L1539.6,288.764 C1539.6,301.764 1539.2,308.964 1538,318.964 L1579.4,318.964 C1578.2,309.364 1577.8,301.764 1577.8,288.964 L1577.8,257.764 C1578.6,248.964 1580,244.764 1583.8,239.964 C1589.6,232.764 1597.4,229.164 1607.6,229.164 C1613.8,229.164 1618.8,230.164 1628,232.964 z" fill="#FFFFFF"/>
    <path d="M1802,318.964 C1836.8,318.964 1857.2,301.964 1857.2,273.164 C1857.2,259.964 1852.8,249.164 1844.2,241.564 C1838.4,236.564 1833.2,234.164 1823.4,231.964 C1831.6,228.964 1835.2,226.964 1839.6,223.164 C1847.2,216.364 1851.2,206.764 1851.2,194.564 C1851.2,168.164 1832.2,152.564 1799.8,152.564 L1747.4,152.564 C1731,152.564 1728.2,152.564 1718,151.964 C1719.2,161.564 1719.6,170.164 1719.6,180.764 L1719.6,290.164 C1719.6,304.164 1719.2,310.964 1718,319.564 C1726.6,319.164 1732.4,318.964 1747.6,318.964 z M1758.8,216.764 L1758.8,185.364 L1793.6,185.364 C1805,185.364 1811.2,190.964 1811.2,200.764 C1811.2,210.564 1804.6,216.764 1794,216.764 z M1758.8,248.764 L1795.4,248.764 C1808.2,248.764 1815.8,255.564 1815.8,267.164 C1815.8,278.964 1808.2,285.964 1795.6,285.964 L1758.8,285.964 z" fill="#FFFFFF"/>
    <path d="M1960,196.964 C1961.2,207.364 1961.6,215.764 1961.6,226.964 L1961.6,267.964 C1953.8,280.764 1942.6,288.564 1931.6,288.564 C1925.8,288.564 1921.4,286.564 1918.6,282.964 C1916.2,279.764 1915.4,276.164 1915.4,267.964 L1915.4,226.964 C1915.4,214.964 1915.8,206.564 1917,196.964 L1875.4,196.964 C1876.4,205.364 1877,215.364 1877,226.964 L1877,277.164 C1877,292.964 1880.4,302.764 1888.4,310.764 C1896,318.164 1906.8,321.964 1920.2,321.964 C1937.2,321.964 1948.6,317.164 1961.8,304.764 C1961.6,306.164 1961.6,309.164 1961.6,310.164 L1961.6,318.764 L2001.4,318.764 C2000.2,310.764 1999.8,302.564 1999.8,288.764 L1999.8,226.964 C1999.8,214.764 2000.2,206.364 2001.4,196.964 z" fill="#FFFFFF"/>
    <path d="M2017.8,282.564 C2019.8,292.164 2021.8,296.964 2025.8,302.564 C2035.4,315.764 2053.2,322.564 2078.4,322.564 C2099.8,322.564 2116.2,317.564 2125.8,307.964 C2132.4,301.564 2136,291.964 2136,281.364 C2136,266.964 2129.8,257.164 2116.8,250.764 C2109.8,247.164 2103.6,245.364 2084,241.164 C2064.2,236.764 2060,234.764 2060,229.364 C2060,224.164 2066.4,220.764 2076.8,220.764 C2087.6,220.764 2092.6,224.364 2093.6,232.564 L2132.2,228.364 C2129,217.164 2125.8,211.364 2119.2,205.564 C2109.8,196.964 2095.6,192.764 2076.6,192.764 C2043.2,192.764 2023,207.364 2023,231.364 C2023,238.164 2024.8,244.964 2028,250.364 C2031.8,256.364 2038.4,260.964 2048,264.564 C2054.6,266.764 2062.4,268.764 2077.6,271.764 C2088.6,273.964 2091.2,274.764 2094,276.364 C2096.8,277.964 2098.4,280.564 2098.4,283.564 C2098.4,289.764 2091.6,293.164 2079.6,293.164 C2066.2,293.164 2059.4,288.564 2057.4,278.164 z" fill="#FFFFFF"/>
    <path d="M2153.8,152.564 L2153.8,182.564 L2194.4,182.564 L2194.4,152.564 z M2153.2,196.964 C2154.4,205.964 2154.8,214.164 2154.8,227.164 L2154.8,288.764 C2154.8,301.564 2154.4,309.164 2153.2,318.964 L2195,318.964 C2194,310.364 2193.4,299.564 2193.4,288.764 L2193.4,227.164 C2193.4,213.164 2193.8,205.164 2195,196.964 z" fill="#FFFFFF"/>
    <path d="M2257.6,318.964 C2256.4,308.564 2256,300.164 2256,288.764 L2256,248.364 C2264.6,234.364 2274.6,227.364 2285.8,227.364 C2291.8,227.364 2296.4,229.364 2299,232.964 C2301.4,236.364 2302.2,239.764 2302.2,247.764 L2302.2,288.764 C2302.2,300.964 2301.8,309.364 2300.6,318.964 L2342.2,318.964 C2341.2,310.564 2340.6,300.564 2340.6,288.964 L2340.6,238.764 C2340.6,222.964 2337.2,213.164 2329.2,205.164 C2321.8,197.764 2310.8,193.964 2297,193.964 C2280.6,193.964 2268.4,198.964 2255.8,210.964 C2255.8,209.564 2256,206.564 2256,205.364 L2256,196.964 L2216.2,196.964 C2217.4,204.964 2217.8,213.364 2217.8,227.164 L2217.8,288.764 C2217.8,301.164 2217.4,309.564 2216.2,318.964 z" fill="#FFFFFF"/>
    <path d="M2484.6,269.164 C2484.4,267.164 2484.4,265.964 2484.4,265.164 C2483.8,253.764 2483,245.364 2481.4,238.964 C2474.4,209.164 2452.6,192.164 2421.4,192.164 C2383.2,192.164 2357.8,218.364 2357.8,257.964 C2357.8,277.764 2364.2,294.764 2376,306.764 C2387.4,318.164 2402.8,323.764 2422.4,323.764 C2442.2,323.764 2458.2,317.964 2469.6,306.764 C2475.2,301.164 2478.2,296.564 2482.8,286.164 L2448,276.364 C2446.4,281.564 2445,283.764 2442,286.564 C2436.8,291.364 2429.8,293.964 2421.8,293.964 C2406,293.964 2396.6,285.364 2394.6,269.164 z M2395.2,241.564 C2398.6,228.364 2407.2,221.964 2421.4,221.964 C2435.2,221.964 2443.8,228.764 2446.6,241.564 z" fill="#FFFFFF"/>
    <path d="M2496,282.564 C2498,292.164 2500,296.964 2504,302.564 C2513.6,315.764 2531.4,322.564 2556.6,322.564 C2578,322.564 2594.4,317.564 2604,307.964 C2610.6,301.564 2614.2,291.964 2614.2,281.364 C2614.2,266.964 2608,257.164 2595,250.764 C2588,247.164 2581.8,245.364 2562.2,241.164 C2542.4,236.764 2538.2,234.764 2538.2,229.364 C2538.2,224.164 2544.6,220.764 2555,220.764 C2565.8,220.764 2570.8,224.364 2571.8,232.564 L2610.4,228.364 C2607.2,217.164 2604,211.364 2597.4,205.564 C2588,196.964 2573.8,192.764 2554.8,192.764 C2521.4,192.764 2501.2,207.364 2501.2,231.364 C2501.2,238.164 2503,244.964 2506.2,250.364 C2510,256.364 2516.6,260.964 2526.2,264.564 C2532.8,266.764 2540.6,268.764 2555.8,271.764 C2566.8,273.964 2569.4,274.764 2572.2,276.364 C2575,277.964 2576.6,280.564 2576.6,283.564 C2576.6,289.764 2569.8,293.164 2557.8,293.164 C2544.4,293.164 2537.6,288.564 2535.6,278.164 z" fill="#FFFFFF"/>
    <path d="M2626.8,282.564 C2628.8,292.164 2630.8,296.964 2634.8,302.564 C2644.4,315.764 2662.2,322.564 2687.4,322.564 C2708.8,322.564 2725.2,317.564 2734.8,307.964 C2741.4,301.564 2745,291.964 2745,281.364 C2745,266.964 2738.8,257.164 2725.8,250.764 C2718.8,247.164 2712.6,245.364 2693,241.164 C2673.2,236.764 2669,234.764 2669,229.364 C2669,224.164 2675.4,220.764 2685.8,220.764 C2696.6,220.764 2701.6,224.364 2702.6,232.564 L2741.2,228.364 C2738,217.164 2734.8,211.364 2728.2,205.564 C2718.8,196.964 2704.6,192.764 2685.6,192.764 C2652.2,192.764 2632,207.364 2632,231.364 C2632,238.164 2633.8,244.964 2637,250.364 C2640.8,256.364 2647.4,260.964 2657,264.564 C2663.6,266.764 2671.4,268.764 2686.6,271.764 C2697.6,273.964 2700.2,274.764 2703,276.364 C2705.8,277.964 2707.4,280.564 2707.4,283.564 C2707.4,289.764 2700.6,293.164 2688.6,293.164 C2675.2,293.164 2668.4,288.564 2666.4,278.164 z" fill="#FFFFFF"/>
  </g>
</svg>
