<?xml version="1.0" encoding="UTF-8"?>
<!DOCTYPE svg PUBLIC "-//W3C//DTD SVG 1.1//EN" "http://www.w3.org/Graphics/SVG/1.1/DTD/svg11.dtd">
<svg version="1.1" xmlns="http://www.w3.org/2000/svg" xmlns:xlink="http://www.w3.org/1999/xlink" x="0" y="0" width="444.819" height="444.819" viewBox="0, 0, 444.819, 444.819">
  <g id="Layer_1">
    <path d="M434.252,114.203 L412.843,92.787 C405.424,85.747 396.759,82.226 386.868,82.226 C376.773,82.226 368.211,85.747 361.168,92.787 L222.41,231.549 L83.653,92.791 C76.611,85.751 68.047,82.23 57.956,82.23 C48.06,82.23 39.397,85.751 31.977,92.791 L10.849,114.207 C3.615,121.436 -0,130.099 -0,140.188 C-0,150.465 3.619,159.03 10.848,165.881 L196.712,351.746 C203.567,358.976 212.128,362.594 222.409,362.594 C232.497,362.594 241.159,358.977 248.386,351.746 L434.251,165.881 C441.294,158.837 444.818,150.273 444.818,140.188 C444.819,130.287 441.295,121.629 434.252,114.203 z" fill="#FFFFFF"/>
  </g>
</svg>
